<?xml version="1.0" encoding="UTF-8"?><svg id="Layer_2" xmlns="http://www.w3.org/2000/svg" viewBox="0 0 536.82 128.96"><defs><style>.cls-1{fill:#1c4248;}.cls-2{fill:#99ca3c;}.cls-3{fill:#2d606a;}</style></defs><g id="Layer_1-2"><g><polygon class="cls-1" points="128.09 66.24 133.84 66.24 143.2 80.78 152.56 66.24 158.32 66.24 158.32 97 152.92 97 152.92 74.94 143.2 89.44 143.03 89.44 133.4 75.03 133.4 97 128.09 97 128.09 66.24"/><path class="cls-1" d="M173.67,81.71v-.09c0-8.66,6.68-15.91,16.13-15.91s16.04,7.16,16.04,15.82v.09c0,8.66-6.68,15.91-16.13,15.91s-16.04-7.16-16.04-15.82m26.5,0v-.09c0-5.98-4.35-10.94-10.46-10.94s-10.37,4.88-10.37,10.85v.09c0,5.98,4.35,10.94,10.46,10.94s10.37-4.88,10.37-10.85"/><polygon class="cls-1" points="221.18 66.24 226.19 66.24 242.67 87.51 242.67 66.24 247.98 66.24 247.98 97 243.46 97 226.49 75.11 226.49 97 221.18 97 221.18 66.24"/><polygon class="cls-1" points="272.25 71.25 262.49 71.25 262.49 66.24 287.45 66.24 287.45 71.25 277.7 71.25 277.7 97 272.25 97 272.25 71.25"/><polygon class="cls-1" points="301.96 66.24 324.77 66.24 324.77 71.07 307.37 71.07 307.37 79.07 322.79 79.07 322.79 83.9 307.37 83.9 307.37 92.16 324.99 92.16 324.99 97 301.96 97 301.96 66.24"/><polygon class="cls-1" points="340.2 66.24 345.21 66.24 361.69 87.51 361.69 66.24 367.01 66.24 367.01 97 362.48 97 345.52 75.11 345.52 97 340.2 97 340.2 66.24"/><polygon class="cls-1" points="383.71 66.24 406.52 66.24 406.52 71.07 389.12 71.07 389.12 79.07 404.54 79.07 404.54 83.9 389.12 83.9 389.12 92.16 406.74 92.16 406.74 97 383.71 97 383.71 66.24"/><path class="cls-1" d="M420.59,81.71v-.09c0-8.61,6.59-15.91,15.86-15.91,5.36,0,8.66,1.49,11.82,4.17l-3.43,4.09c-2.37-2.02-4.7-3.3-8.61-3.3-5.67,0-9.98,4.97-9.98,10.85v.09c0,6.33,4.17,10.99,10.46,10.99,2.9,0,5.54-.92,7.43-2.33v-5.76h-7.87v-4.7h13.1v12.92c-3.03,2.59-7.38,4.79-12.83,4.79-9.62,0-15.95-6.86-15.95-15.82"/><path class="cls-1" d="M465.2,66.24h13.71c3.87,0,6.9,1.14,8.88,3.08,1.63,1.67,2.55,3.96,2.55,6.64v.09c0,5.05-3.03,8.09-7.34,9.32l8.31,11.65h-6.37l-7.56-10.72h-6.77v10.72h-5.41v-30.76Zm13.32,15.25c3.87,0,6.33-2.02,6.33-5.14v-.09c0-3.3-2.37-5.1-6.37-5.1h-7.87v10.33h7.91Z"/><path class="cls-1" d="M504.41,81.71v-.09c0-8.66,6.68-15.91,16.13-15.91s16.04,7.16,16.04,15.82v.09c0,8.66-6.68,15.91-16.13,15.91s-16.04-7.16-16.04-15.82m26.5,0v-.09c0-5.98-4.35-10.94-10.46-10.94s-10.37,4.88-10.37,10.85v.09c0,5.98,4.35,10.94,10.46,10.94s10.37-4.88,10.37-10.85"/><path class="cls-3" d="M347.28,122.86v-8.14h1.58v8.04c0,3.02,1.6,4.72,4.28,4.72s4.22-1.56,4.22-4.62v-8.14h1.58v8.02c0,4.08-2.34,6.2-5.84,6.2s-5.82-2.12-5.82-6.08"/><path class="cls-3" d="M370.67,114.72h6.02c1.72,0,3.1,.52,3.98,1.4,.68,.68,1.08,1.66,1.08,2.76v.04c0,2.32-1.6,3.68-3.8,4.08l4.3,5.72h-1.94l-4.06-5.44h-4v5.44h-1.58v-14Zm5.88,7.14c2.1,0,3.6-1.08,3.6-2.88v-.04c0-1.72-1.32-2.76-3.58-2.76h-4.32v5.68h4.3Z"/><path class="cls-3" d="M393.13,114.72h5.96c1.6,0,2.86,.46,3.66,1.24,.58,.6,.9,1.34,.9,2.24v.04c0,1.82-1.12,2.76-2.22,3.24,1.66,.5,3,1.46,3,3.38v.04c0,2.4-2.02,3.82-5.08,3.82h-6.22v-14Zm5.7,6.24c1.9,0,3.22-.86,3.22-2.5v-.04c0-1.38-1.1-2.28-3.1-2.28h-4.26v4.82h4.14Zm.56,6.34c2.12,0,3.44-.94,3.44-2.5v-.04c0-1.52-1.28-2.4-3.72-2.4h-4.42v4.94h4.7Z"/><path class="cls-3" d="M420.76,114.62h1.48l6.38,14.1h-1.7l-1.64-3.7h-7.62l-1.66,3.7h-1.62l6.38-14.1Zm3.9,8.98l-3.18-7.14-3.2,7.14h6.38Z"/><polygon class="cls-3" points="439.37 114.72 440.85 114.72 449.68 125.94 449.68 114.72 451.22 114.72 451.22 128.72 449.96 128.72 440.91 117.24 440.91 128.72 439.37 128.72 439.37 114.72"/><rect class="cls-3" x="463.31" y="114.72" width="1.58" height="14"/><path class="cls-3" d="M476.07,126.68l.98-1.16c1.46,1.32,2.86,1.98,4.8,1.98s3.12-1,3.12-2.38v-.04c0-1.3-.7-2.04-3.64-2.66-3.22-.7-4.7-1.74-4.7-4.04v-.04c0-2.2,1.94-3.82,4.6-3.82,2.04,0,3.5,.58,4.92,1.72l-.92,1.22c-1.3-1.06-2.6-1.52-4.04-1.52-1.82,0-2.98,1-2.98,2.26v.04c0,1.32,.72,2.06,3.8,2.72,3.12,.68,4.56,1.82,4.56,3.96v.04c0,2.4-2,3.96-4.78,3.96-2.22,0-4.04-.74-5.72-2.24"/><polygon class="cls-3" points="497.79 114.72 499.39 114.72 504.49 122.36 509.6 114.72 511.2 114.72 511.2 128.72 509.62 128.72 509.62 117.38 504.52 124.88 504.44 124.88 499.33 117.4 499.33 128.72 497.79 128.72 497.79 114.72"/><path class="cls-3" d="M522.53,121.76v-.04c0-3.86,2.9-7.24,7.16-7.24s7.12,3.34,7.12,7.2v.04c0,3.86-2.9,7.24-7.16,7.24s-7.12-3.34-7.12-7.2m12.64,0v-.04c0-3.18-2.32-5.78-5.52-5.78s-5.48,2.56-5.48,5.74v.04c0,3.18,2.32,5.78,5.52,5.78s5.48-2.56,5.48-5.74"/><rect class="cls-2" x="12.57" y="12.57" width="60.68" height="60.68" transform="translate(-17.77 42.91) rotate(-45)"/><polygon class="cls-1" points="17.13 64.73 0 47.6 0 128.72 17.13 111.59 17.13 64.73"/><polygon class="cls-1" points="68.68 111.59 85.82 128.72 85.82 47.6 68.68 64.73 68.68 111.59"/><polygon class="cls-3" points="17.13 111.59 0 128.72 85.82 128.72 68.68 111.59 17.13 111.59"/></g></g></svg>