<svg xmlns="http://www.w3.org/2000/svg"><symbol fill="none" id="arrow-slide" viewBox="0 0 39 74"><g clip-path="url(#a)"><path d="m1.98 1.979 35.04 35.02L1.98 72.022" stroke="#114526" stroke-width="5.57" stroke-linecap="round" stroke-linejoin="round"/></g><defs><clipPath id="a"><path fill="#fff" d="M0 0h39v74H0z"/></clipPath></defs></symbol><symbol fill="none" id="arrow" viewBox="0 0 37 17"><g clip-path="url(#a)" stroke="#3D7B56" stroke-width="3" stroke-linecap="round" stroke-linejoin="round"><path d="M1.505 8.495h33.99m-7.565 7.009 7.565-7.009m0 0-7.564-7"/></g><defs><clipPath id="a"><path fill="#fff" d="M0 0h37v17H0z"/></clipPath></defs></symbol><symbol id="Asset3" viewBox="0 0 183.89 72.4"><defs><linearGradient id="linear-gradient" x1="29.98" y1="108.38" x2="29.98" y2="55.9" gradientTransform="matrix(1 0 0 -1 0 121.47)" gradientUnits="userSpaceOnUse"><stop offset="0" stop-color="#f7ec86"/><stop offset="1" stop-color="#dbbb7c"/></linearGradient><clipPath id="clippath"><path style="fill:none" d="M0 0h59.8v69.49H0z"/></clipPath><style>.cls-4{fill:none;stroke-miterlimit:10;stroke-width:1.94px;stroke:#e6cf81}.cls-1{fill:#1c4248}.cls-3{fill:#2d606a}</style></defs><g id="Layer_1-2"><path d="M80.97 70.23c-.1-.3-.23-.6-.39-.91-.14-.32-.34-.74-.58-1.26l-3.48-7.27h-.04l-.35 7.35c-.01.44.09.79.31 1.06.22.26.62.4 1.2.43v.44h-3.58v-.44c.37-.03.64-.17.79-.43.17-.27.26-.63.27-1.06l.41-8.99c.03-.45 0-.77-.1-.97a.598.598 0 0 0-.43-.37c-.21-.06-.48-.12-.83-.15v-.44h4.14c.1.34.22.65.35.95.14.3.3.63.46.99l3.33 6.96h.04l3.09-6.96c.3-.66.52-1.3.68-1.93h4.1v.44c-.24.01-.45.05-.62.12-.17.06-.29.2-.37.41-.06.19-.09.52-.08.97l.41 8.99c.03.41.08.72.15.93.09.21.23.35.43.43.19.06.45.11.77.14v.44h-5.51v-.44c.41-.03.7-.12.85-.29.17-.17.24-.57.21-1.2l-.33-7.91h-.04l-3.5 7.83c-.24.54-.43.97-.54 1.28-.1.3-.19.59-.27.89h-.97Zm11.08-.15v-.44c.37-.03.64-.12.81-.29.17-.17.25-.57.25-1.2v-8.99c0-.63-.1-1.03-.29-1.2-.18-.18-.53-.28-1.06-.29v-.44h9.5v2.71h-.44c-.03-.55-.22-1.01-.58-1.35-.35-.35-.89-.52-1.62-.52h-1.55c-.27 0-.48.07-.64.21-.14.14-.21.44-.21.89v3.81c.1-.08.23-.13.37-.15.15-.03.34-.04.54-.04h1.88c.39 0 .71-.11.97-.33.26-.22.39-.52.41-.91h.44v3.29h-.44c-.01-.48-.15-.8-.41-.97-.26-.17-.58-.25-.97-.25h-1.84c-.35 0-.59.06-.73.17-.14.12-.21.34-.21.68v3.69c0 .45.1.75.29.89.21.14.6.21 1.18.21h1.84c.77 0 1.39-.23 1.84-.7.45-.46.7-1.02.75-1.66h.44l-.15 3.19H92.07Zm22.7.29c-.58 0-1.08-.1-1.49-.29-.41-.18-.76-.43-1.04-.73s-.55-.65-.79-1.02l-2.71-4.22c-.13-.22-.24-.35-.35-.41-.1-.05-.23-.08-.37-.1v-.68c.77-.05 1.37-.21 1.8-.46s.72-.57.89-.95c.17-.39.25-.79.25-1.2 0-.79-.22-1.37-.66-1.76-.44-.4-.94-.6-1.51-.6-.43 0-.73.08-.91.23-.17.14-.25.46-.25.97v8.99c0 .63.1 1.03.29 1.2s.55.26 1.06.29v.44h-5.51v-.44c.37-.03.64-.12.81-.29.17-.17.25-.57.25-1.2v-8.99c0-.63-.1-1.03-.29-1.2-.18-.18-.53-.28-1.06-.29v-.44h1.35c.97 0 1.84-.01 2.63-.04.79-.04 1.46-.06 2.01-.06 1.28 0 2.29.12 3.04.37.76.23 1.3.56 1.62.99.34.43.5.91.5 1.45s-.13.99-.39 1.41c-.24.43-.57.79-.99 1.08-.4.28-.84.48-1.31.6v.04l3.21 5.03c.37.59.72 1 1.02 1.22.31.22.59.33.83.33v.44c-.26.09-.57.16-.93.21-.35.05-.69.08-1.02.08Zm8.36 0c-1.35 0-2.55-.27-3.6-.81a6.147 6.147 0 0 1-2.46-2.28c-.59-.99-.89-2.14-.89-3.44 0-1.07.19-2.02.58-2.86.39-.85.92-1.58 1.59-2.19.68-.61 1.46-1.06 2.34-1.37.89-.32 1.84-.48 2.84-.48.76 0 1.49.07 2.19.21.7.14 1.25.31 1.66.5v3.06h-.44c-.26-.79-.57-1.39-.93-1.8-.36-.43-.77-.72-1.22-.89-.44-.17-.9-.25-1.39-.25-2.49 0-3.73 1.8-3.73 5.41 0 1.19.12 2.26.37 3.23.26.97.65 1.73 1.18 2.3.54.55 1.23.83 2.07.83.68 0 1.3-.17 1.86-.5.55-.35 1.02-.81 1.41-1.37.4-.57.68-1.18.85-1.84h.44l-.15 2.94c-.43.46-1.02.85-1.8 1.16-.77.3-1.7.44-2.77.44Zm16.17-2.22c.18.44.33.76.44.97.13.21.26.34.41.41.14.05.32.09.52.12v.44h-5.4v-.44c.52-.03.8-.18.85-.46.06-.28.02-.63-.14-1.02l-.97-2.51a.81.81 0 0 1-.31.14 4.4 4.4 0 0 1-.39.02h-2.19c-.27 0-.48.03-.62.1-.14.06-.26.23-.37.48l-.7 1.78c-.17.43-.15.77.04 1.04s.57.42 1.14.44v.44h-3.52v-.44c.28-.03.52-.17.72-.43.21-.27.39-.63.56-1.06l3.71-9.4c.14-.34.26-.66.37-.99.12-.32.22-.65.31-.99h1.12c.09.34.19.66.31.99.12.32.24.65.37.99l3.71 9.4Zm-5.07-3.19c.18 0 .3-.03.35-.08.06-.06.06-.19-.02-.39l-1.33-3.31h-.04l-1.51 3.85c.06-.04.14-.06.23-.06.09-.01.19-.02.31-.02h2.01Zm18.4 5.28a8.49 8.49 0 0 0-.6-.6c-.21-.21-.53-.51-.99-.91l-7.62-6.96h-.04v6.38c0 .44.11.79.33 1.06.23.26.63.4 1.18.43v.44h-3.58v-.44c.37-.03.64-.17.81-.43.17-.27.25-.63.25-1.06v-8.99c0-.63-.1-1.03-.29-1.2-.18-.18-.54-.28-1.06-.29v-.44h2.32c.19.24.4.46.62.66.22.19.47.43.75.7l7.7 6.96h.04v-6.38c0-.44-.11-.79-.33-1.06-.22-.27-.61-.41-1.18-.43v-.44h3.58v.44c-.37.01-.64.15-.81.43-.17.27-.25.63-.25 1.06v10.04c.01.32.03.67.04 1.04h-.87Zm2.65-13.01h11.02v3.19h-.44c-.08-.7-.28-1.26-.62-1.7-.34-.44-.91-.66-1.72-.66h-1.18v10.09c0 .63.1 1.03.29 1.2s.55.26 1.06.29v.44h-5.51v-.44c.37-.03.64-.12.81-.29.17-.17.25-.57.25-1.2V58.06h-1.2c-.79 0-1.35.22-1.7.66-.34.44-.54 1.01-.62 1.7h-.44v-3.19Zm12.1 12.86v-.44c.37-.03.64-.12.81-.29.17-.17.25-.57.25-1.2v-8.99c0-.63-.1-1.03-.29-1.2-.18-.18-.54-.28-1.06-.29v-.44h5.51v.44c-.37.01-.64.11-.81.29-.17.17-.25.57-.25 1.2v8.99c0 .63.1 1.03.29 1.2.19.17.55.26 1.06.29v.44h-5.51Zm6.8 0v-.44c.37-.03.64-.12.81-.29.17-.17.25-.57.25-1.2v-8.99c0-.63-.1-1.03-.29-1.2-.18-.18-.53-.28-1.06-.29v-.44h5.51v.44c-.37.01-.64.11-.81.29-.17.17-.25.57-.25 1.2v8.99c0 .45.1.75.29.89.21.14.6.21 1.18.21h1.26c.58 0 1.04-.1 1.37-.31.34-.22.58-.51.73-.87.15-.36.25-.75.29-1.18h.44l-.15 3.19h-9.57Z" style="fill:#e4c381"/><path d="M73.49 43.19v-1.24c.97-.04 1.73-.14 2.27-.32.58-.18.97-.56 1.19-1.14.22-.58.32-1.48.32-2.7V12.65c0-1.26-.14-2.16-.43-2.7-.25-.58-.74-.96-1.46-1.14-.72-.18-1.8-.29-3.24-.32V7.25h13.52v1.24c-.97.04-1.73.14-2.27.32s-.94.56-1.19 1.14c-.22.54-.32 1.44-.32 2.7v9.46c.29-.22.63-.36 1.03-.43.43-.07.94-.11 1.51-.11h14.27c.97 0 1.66-.16 2.05-.49.4-.32.59-.97.59-1.95v-6.49c0-1.26-.14-2.16-.43-2.7-.25-.58-.74-.96-1.46-1.14-.72-.18-1.8-.29-3.24-.32V7.24h13.52v1.24c-.97.04-1.73.14-2.27.32s-.94.56-1.19 1.14c-.22.54-.32 1.44-.32 2.7v25.14c0 1.23.13 2.13.38 2.7.25.58.74.96 1.46 1.14.76.18 1.84.29 3.24.32v1.24H97.56v-1.24c.97-.04 1.73-.14 2.27-.32.58-.18.97-.56 1.19-1.14.22-.58.32-1.48.32-2.7V22.91c-.29.25-.65.41-1.08.49-.43.07-.92.11-1.46.11H84.53c-.97 0-1.66.16-2.05.49-.4.32-.59.96-.59 1.89v11.89c0 1.23.13 2.13.38 2.7.29.58.79.96 1.51 1.14.72.18 1.78.29 3.19.32v1.24H73.51Zm53.83.81c-3.1 0-5.44-.85-7.03-2.54-1.55-1.73-2.32-4.07-2.32-7.03V12.65c0-1.26-.13-2.16-.38-2.7-.25-.58-.72-.96-1.41-1.14-.65-.18-1.6-.29-2.87-.32V7.25h13.03v1.24c-.97.04-1.73.14-2.27.32s-.94.56-1.19 1.14c-.22.54-.32 1.44-.32 2.7v20.54c0 2.09.43 3.84 1.3 5.24.9 1.37 2.5 2.05 4.81 2.05 1.69 0 3.3-.38 4.81-1.14 1.51-.76 2.85-1.8 4-3.14 1.19-1.37 2.11-2.94 2.76-4.7.68-1.77 1.03-3.68 1.03-5.73V12.65c0-1.26-.13-2.16-.38-2.7-.25-.58-.76-.96-1.51-1.14-.72-.18-1.78-.29-3.19-.32V7.25h13.19v1.24c-.97.04-1.73.14-2.27.32s-.94.56-1.19 1.14c-.22.54-.32 1.44-.32 2.7v25.19c0 1.23.11 2.13.32 2.7.25.54.67.9 1.24 1.08.61.18 1.44.29 2.49.32v1.24h-7.68c-.22-.58-.38-1.26-.49-2.05-.11-.83-.16-1.95-.16-3.35v-4.6h-.11c-1.41 3.39-3.26 6.04-5.57 7.95-2.27 1.91-5.05 2.87-8.33 2.87Zm27-.81v-1.24c.97-.04 1.73-.14 2.27-.32.58-.18.97-.56 1.19-1.14.22-.58.32-1.48.32-2.7V12.65c0-1.26-.14-2.16-.43-2.7-.25-.58-.74-.96-1.46-1.14-.72-.18-1.8-.29-3.24-.32V7.25h5.14c1.77 0 3.21-.02 4.32-.05 1.12-.07 2.14-.13 3.08-.16.97-.04 2.09-.05 3.35-.05 3.82 0 6.61.67 8.38 2 1.77 1.3 2.65 3.01 2.65 5.14s-.72 3.95-2.16 5.24c-1.44 1.3-3.21 2.32-5.3 3.08v.11c2.2.11 4.14.54 5.84 1.3 1.73.72 3.1 1.75 4.11 3.08s1.51 2.96 1.51 4.87-.5 3.69-1.51 5.46c-.97 1.73-2.52 3.15-4.65 4.27-2.09 1.12-4.83 1.68-8.22 1.68h-15.19Zm8.38-20c.47-.32.9-.52 1.3-.59.43-.11.94-.18 1.51-.22 1.08-.11 2.16-.27 3.24-.49 1.12-.25 2.13-.65 3.03-1.19a6.35 6.35 0 0 0 2.27-2.22c.58-.97.87-2.2.87-3.68 0-1.69-.4-2.96-1.19-3.78-.79-.83-1.78-1.39-2.97-1.68-1.19-.29-2.41-.43-3.68-.43-1.55 0-2.67.2-3.35.59-.68.4-1.03 1.44-1.03 3.14v10.54Zm6.38 18.06c2.56 0 4.54-.47 5.95-1.41 1.44-.94 2.45-2.09 3.03-3.46.58-1.41.87-2.79.87-4.16 0-1.98-.5-3.55-1.51-4.7-.97-1.19-2.31-2.04-4-2.54-1.66-.54-3.53-.81-5.62-.81-1.77 0-3.06.23-3.89.7-.79.43-1.19 1.26-1.19 2.49v10.43c0 1.05.18 1.82.54 2.32.36.47.99.77 1.89.92.94.14 2.25.22 3.95.22Z" style="fill:#fff"/><g style="clip-path:url(#clippath)"><path d="M29.97 65.57V50.12l.02-37.03" style="stroke:url(#linear-gradient);stroke-miterlimit:10;stroke-width:1.94px;fill:none"/><path d="M29.99 13.09c2.5 0 4.52-2.02 4.52-4.52s-2.02-4.52-4.52-4.52-4.52 2.02-4.52 4.52 2.02 4.52 4.52 4.52Z" style="stroke-miterlimit:10;stroke-width:1.94px;fill:#f3e784;stroke:#f3e784"/><path class="cls-4" d="M10.51 29.67a34.736 34.736 0 0 1 19.48 19.48"/><path class="cls-4" d="M6.47 32.7c2.5 0 4.52-2.02 4.52-4.52s-2.02-4.52-4.52-4.52-4.52 2.02-4.52 4.52 2.02 4.52 4.52 4.52Zm43-3.03a34.736 34.736 0 0 0-19.48 19.48"/><path class="cls-4" d="M53.52 32.7c-2.5 0-4.52-2.02-4.52-4.52s2.02-4.52 4.52-4.52 4.52 2.02 4.52 4.52-2.02 4.52-4.52 4.52Z"/></g><path style="stroke:#dfc17e;stroke-width:.64px;fill:none" d="M20.81 72.08h18.23"/></g></symbol><symbol class="ionicon" id="close" viewBox="0 0 512 512"><path d="m289.94 256 95-95A24 24 0 0 0 351 127l-95 95-95-95a24 24 0 0 0-34 34l95 95-95 95a24 24 0 1 0 34 34l95-95 95 95a24 24 0 0 0 34-34z"/></symbol><symbol fill="none" id="facebook" viewBox="0 0 20 19"><path d="M18.625.145H1.375a.75.75 0 0 0-.75.75v17.25c0 .414.335.75.75.75h17.25a.75.75 0 0 0 .75-.75V.895a.75.75 0 0 0-.75-.75Zm-2.166 5.472h-1.497c-1.175 0-1.402.558-1.402 1.378v1.807h2.803l-.365 2.83H13.56v7.263h-2.923v-7.261H8.194V8.802h2.444V6.716c0-2.42 1.48-3.74 3.64-3.74 1.036 0 1.925.077 2.185.112v2.53h-.003Z" fill="#b1dbe0" fill-opacity=".62"/></symbol><symbol id="ico-facebook" viewBox="0 0 22.6 22.6"><defs><clipPath id="a"><path fill="none" d="M0 0h22.6v22.6H0z"/></clipPath></defs><path d="M13.925 11.517h-5.25a.8.8 0 0 1-.8-.8.8.8 0 0 1 .8-.8h5.25a.8.8 0 0 1 .8.8.8.8 0 0 1-.8.8Z" fill="#c7c7c7"/><g clip-path="url(#a)" fill="#c7c7c7"><path d="M10.425 17.35a.8.8 0 0 1-.8-.8V8.383a3.137 3.137 0 0 1 3.133-3.133h1.167a.8.8 0 1 1 0 1.6h-1.167a1.535 1.535 0 0 0-1.533 1.533v8.167a.8.8 0 0 1-.8.8Z"/><path d="M6.633 0h9.333A6.642 6.642 0 0 1 22.6 6.634v9.332a6.642 6.642 0 0 1-6.634 6.634H6.633A6.641 6.641 0 0 1 0 15.967V6.633A6.641 6.641 0 0 1 6.633 0Zm9.333 21A5.04 5.04 0 0 0 21 15.966V6.634A5.04 5.04 0 0 0 15.966 1.6H6.633A5.039 5.039 0 0 0 1.6 6.633v9.334A5.039 5.039 0 0 0 6.633 21Z"/></g></symbol><symbol id="ico-instagram" viewBox="0 0 22.6 22.6"><defs><clipPath id="a"><path fill="none" d="M0 0h22.6v22.6H0z"/></clipPath></defs><g clip-path="url(#a)" fill="#c7c7c7"><path d="M6.045 0h10.51A6.052 6.052 0 0 1 22.6 6.045v10.509a6.053 6.053 0 0 1-6.046 6.046H6.045A6.052 6.052 0 0 1 0 16.555V6.045A6.052 6.052 0 0 1 6.045 0Zm10.509 21A4.451 4.451 0 0 0 21 16.554V6.045A4.45 4.45 0 0 0 16.555 1.6H6.045A4.45 4.45 0 0 0 1.6 6.045v10.51A4.45 4.45 0 0 0 6.045 21Z"/><path d="M17.075 6.72a1.194 1.194 0 1 1 .846-2.036 1.194 1.194 0 0 1-.846 2.036ZM11.3 16.3a5 5 0 1 1 3.535-1.464A4.97 4.97 0 0 1 11.3 16.3Zm0-8.4a3.4 3.4 0 1 0 2.4 1 3.38 3.38 0 0 0-2.4-1Z"/></g></symbol><symbol id="ico-share" viewBox="0 0 12 12"><g clip-path="url(#a)" fill="#3d7b56"><path d="M10 12H2a1.993 1.993 0 0 1-2-2V2a1.993 1.993 0 0 1 2-2h2.67a.67.67 0 1 1 0 1.34H2a.67.67 0 0 0-.67.67V10a.67.67 0 0 0 .67.67h8a.67.67 0 0 0 .67-.67V7.33a.67.67 0 1 1 1.34 0V10a1.993 1.993 0 0 1-2 2Z"/><path d="M12 .7v3.33a.668.668 0 0 1-.41.61.559.559 0 0 1-.25.05.665.665 0 0 1-.47-.19L9.64 3.33 6.45 6.52a.665.665 0 0 1-.94-.94l3.17-3.21-1.17-1.19a.68.68 0 0 1-.16-.73.667.667 0 0 1 .67-.41h3.59a.633.633 0 0 1 .35.35v.09a.585.585 0 0 1 .05.22Z"/></g></symbol><symbol id="ico-spotify" viewBox="0 0 22.75 22.75"><defs><clipPath id="a"><path fill="none" d="M0 0h22.75v22.75H0z"/></clipPath></defs><g clip-path="url(#a)" fill="#c7c7c7"><path d="M18.1 10.22a.871.871 0 0 1-.467-.136c-2.524-1.6-8.068-2.463-12.3-1.212a.875.875 0 1 1-.5-1.678c4.838-1.432 10.894-.383 13.73 1.41a.875.875 0 0 1-.463 1.616Zm-1.327 3.324a.8.8 0 0 1-.432-.127A12.176 12.176 0 0 0 11.6 11.8a13.324 13.324 0 0 0-5.74.4.8.8 0 0 1-.476-1.528 14.931 14.931 0 0 1 6.435-.456 13.619 13.619 0 0 1 5.387 1.852.8.8 0 0 1-.434 1.473Zm-1.136 3.008a.871.871 0 0 1-.449-.125c-2.463-1.478-5.432-1.8-9.075-.982a.875.875 0 0 1-.383-1.708c4.1-.92 7.491-.531 10.359 1.19a.875.875 0 0 1-.451 1.625Z"/><path d="M6.125 0H16.63a6.127 6.127 0 0 1 6.12 6.12v10.511a6.126 6.126 0 0 1-6.12 6.119H6.12A6.127 6.127 0 0 1 0 16.63V6.125A6.132 6.132 0 0 1 6.125 0ZM16.63 21A4.374 4.374 0 0 0 21 16.631V6.12a4.375 4.375 0 0 0-4.37-4.37H6.125A4.38 4.38 0 0 0 1.75 6.125V16.63A4.375 4.375 0 0 0 6.12 21Z"/></g></symbol><symbol id="ico-whatsapp" viewBox="0 0 512 512"><path d="M240 0h32a28.365 28.365 0 0 0 3.85.817c39.862 2.98 77.177 14.423 111.176 35.354 66.084 40.684 106.786 99.204 121.046 175.714 1.732 9.293 2.639 18.74 3.928 28.115v32c-.41 3.282-.867 6.558-1.223 9.846-5.481 50.635-23.83 96.057-56.147 135.44-40.187 48.975-91.6 79.387-154.045 90.75-9.456 1.72-19.053 2.662-28.585 3.964h-32c-6.249-.769-12.511-1.436-18.743-2.323-47.226-6.717-89.65-24.715-126.521-55.03-48.939-40.24-79.414-91.582-90.757-154.04C2.26 291.144 1.307 281.54 0 272v-32c.405-3.28.85-6.554 1.208-9.838 5.923-54.228 26.427-102.18 62.602-143.06 39.778-44.953 89.323-72.907 148.583-83.24C221.542 2.267 230.796 1.272 240 0ZM107.023 407.4c2.115-.44 3.556-.673 4.962-1.04 23.978-6.254 47.928-12.615 71.958-18.659a13.282 13.282 0 0 1 8.394.977c28.13 13.817 57.708 19.078 88.774 15.096 85.208-10.922 144.785-90.459 131.747-175.67-12.856-84.021-93.125-141.722-177.047-127.27-103.404 17.807-158.785 131.138-109.423 223.68a12.527 12.527 0 0 1 .865 8.323c-6.487 24.596-13.277 49.111-20.23 74.562Z"/><path d="M143.758 371.28c3.964-14.586 7.57-28.367 11.521-42.047a10.46 10.46 0 0 0-1.367-9.292c-46.797-75.737-6.634-172.28 79.988-192.447 70.644-16.447 142.364 32.395 153.238 104.356 10.62 70.28-36.365 134.886-106.504 145.83-30.2 4.712-58.58-1.342-85.059-16.655a11.587 11.587 0 0 0-7.773-1.06c-14.382 3.458-28.667 7.316-44.044 11.315Zm157.666-45.878a54.176 54.176 0 0 0 7.156-.494c17.688-3.585 30.991-13.763 30.392-32.901-.058-1.855-1.125-4.617-2.546-5.341-10.657-5.432-21.491-10.519-32.337-15.57-3.113-1.45-5.668-.433-7.8 2.391-3.609 4.778-7.513 9.331-11.228 14.03-2.311 2.922-4.997 3.347-8.397 1.992-22.475-8.953-39.606-24.054-52.055-44.697-1.957-3.246-1.624-5.73.723-8.549a83.27 83.27 0 0 0 8.593-11.615c1.23-2.153 1.887-5.585 1.068-7.795-3.75-10.124-8.009-20.067-12.349-29.96a11.003 11.003 0 0 0-4.443-5.076c-5.11-2.697-16.489-.602-20.663 3.46-11.936 11.615-16.14 25.67-12.812 41.923 2.85 13.923 10.655 25.321 19.023 36.386 16.169 21.382 34.948 39.803 59.783 50.911 12.112 5.417 24.36 10.835 37.892 10.904Z"/></symbol><symbol id="ico-youtube" viewBox="0 0 24.933 20.691"><defs><clipPath id="a"><path fill="none" d="M0 0h24.933v20.691H0z"/></clipPath></defs><g clip-path="url(#a)" fill="#c7c7c7"><path d="M12.467 0c.759 0 7.473.017 9.354.6a4.018 4.018 0 0 1 2.606 3 41.524 41.524 0 0 1 .506 6.743 41.523 41.523 0 0 1-.506 6.743 4.012 4.012 0 0 1-2.606 3c-1.881.587-8.594.6-9.354.6s-7.47-.017-9.354-.6a4.014 4.014 0 0 1-2.606-3A41.443 41.443 0 0 1 0 10.346 41.442 41.442 0 0 1 .507 3.6a4.011 4.011 0 0 1 2.606-3C5 .017 11.708 0 12.467 0Zm0 19.091c2 0 7.481-.1 8.878-.532a2.415 2.415 0 0 0 1.523-1.828 40.964 40.964 0 0 0 .466-6.385 41 41 0 0 0-.466-6.387 2.419 2.419 0 0 0-1.525-1.828c-1.395-.431-6.88-.531-8.876-.531s-7.479.1-8.878.532A2.414 2.414 0 0 0 2.067 3.96a40.916 40.916 0 0 0-.467 6.386 40.915 40.915 0 0 0 .467 6.386 2.416 2.416 0 0 0 1.524 1.828c1.397.44 6.881.531 8.876.531Z"/><path d="M10.135 14.646a.8.8 0 0 1-.8-.8v-7a.8.8 0 0 1 1.2-.693l6.062 3.5a.8.8 0 0 1 0 1.386l-6.062 3.5a.8.8 0 0 1-.4.107Zm.8-6.414v4.228l3.665-2.114Z"/></g></symbol><symbol fill="none" id="instagram" viewBox="0 0 24 25"><path d="M12.001 7.022a5.486 5.486 0 0 0-5.494 5.494 5.486 5.486 0 0 0 5.494 5.493 5.486 5.486 0 0 0 5.494-5.493 5.486 5.486 0 0 0-5.494-5.494Zm0 9.064a3.578 3.578 0 0 1-3.57-3.57A3.578 3.578 0 0 1 12 8.946a3.578 3.578 0 0 1 3.57 3.57 3.578 3.578 0 0 1-3.57 3.57Zm5.719-10.57c-.71 0-1.283.574-1.283 1.284 0 .71.573 1.283 1.283 1.283a1.28 1.28 0 0 0 1.186-1.775 1.281 1.281 0 0 0-1.186-.791Zm4.99 7c0-1.479.014-2.944-.07-4.42-.082-1.714-.474-3.236-1.727-4.49-1.256-1.256-2.775-1.644-4.49-1.727-1.478-.083-2.943-.07-4.42-.07-1.478 0-2.943-.013-4.419.07-1.714.083-3.235.474-4.489 1.728C1.839 4.863 1.45 6.382 1.367 8.096c-.083 1.479-.07 2.944-.07 4.42s-.013 2.943.07 4.42c.083 1.714.474 3.235 1.728 4.489 1.256 1.256 2.775 1.644 4.49 1.727 1.478.083 2.943.07 4.419.07 1.479 0 2.944.013 4.42-.07 1.714-.083 3.235-.474 4.489-1.727 1.256-1.257 1.645-2.775 1.727-4.49.086-1.476.07-2.94.07-4.42Zm-2.357 6.316a3.403 3.403 0 0 1-.809 1.226 3.44 3.44 0 0 1-1.227.81c-1.409.56-4.754.433-6.316.433-1.561 0-4.91.126-6.319-.43a3.403 3.403 0 0 1-1.226-.81 3.427 3.427 0 0 1-.81-1.227c-.556-1.411-.43-4.757-.43-6.318 0-1.562-.126-4.91.43-6.32.196-.487.432-.85.81-1.226a3.464 3.464 0 0 1 1.226-.809c1.41-.557 4.758-.431 6.32-.431 1.56 0 4.91-.126 6.318.431.488.196.852.431 1.227.81.377.377.613.738.809 1.226.557 1.409.431 4.757.431 6.319 0 1.561.126 4.907-.434 6.316Z" fill="#b1dbe0" fill-opacity=".62"/></symbol><symbol id="marca-montenegro-footer" viewBox="0 0 148.96 223.42"><g fill="#b1dbe0" fill-opacity=".62"><path d="M.001 74.473 74.474 0l74.472 74.473-74.472 74.472z"/><path d="M119.21 193.68H29.73v-81.33L0 82.62v140.8h148.96V82.62l-29.75 29.73v81.33z"/></g></symbol><symbol id="marca-montenegro" viewBox="0 0 536.82 128.96"><g id="Layer_1-2"><path class="cls-1" d="M128.09 66.24h5.75l9.36 14.54 9.36-14.54h5.76V97h-5.4V74.94l-9.72 14.5h-.17l-9.63-14.41V97h-5.31V66.24zm45.58 15.47v-.09c0-8.66 6.68-15.91 16.13-15.91s16.04 7.16 16.04 15.82v.09c0 8.66-6.68 15.91-16.13 15.91s-16.04-7.16-16.04-15.82m26.5 0v-.09c0-5.98-4.35-10.94-10.46-10.94s-10.37 4.88-10.37 10.85v.09c0 5.98 4.35 10.94 10.46 10.94s10.37-4.88 10.37-10.85m21.01-15.47h5.01l16.48 21.27V66.24h5.31V97h-4.52l-16.97-21.89V97h-5.31V66.24zm51.07 5.01h-9.76v-5.01h24.96v5.01h-9.75V97h-5.45V71.25zm29.71-5.01h22.81v4.83h-17.4v8h15.42v4.83h-15.42v8.26h17.62V97h-23.03V66.24zm38.24 0h5.01l16.48 21.27V66.24h5.32V97h-4.53l-16.96-21.89V97h-5.32V66.24zm43.51 0h22.81v4.83h-17.4v8h15.42v4.83h-15.42v8.26h17.62V97h-23.03V66.24zm36.88 15.47v-.09c0-8.61 6.59-15.91 15.86-15.91 5.36 0 8.66 1.49 11.82 4.17l-3.43 4.09c-2.37-2.02-4.7-3.3-8.61-3.3-5.67 0-9.98 4.97-9.98 10.85v.09c0 6.33 4.17 10.99 10.46 10.99 2.9 0 5.54-.92 7.43-2.33v-5.76h-7.87v-4.7h13.1v12.92c-3.03 2.59-7.38 4.79-12.83 4.79-9.62 0-15.95-6.86-15.95-15.82m44.61-15.46h13.71c3.87 0 6.9 1.14 8.88 3.08 1.63 1.67 2.55 3.96 2.55 6.64v.09c0 5.05-3.03 8.09-7.34 9.32l8.31 11.65h-6.37l-7.56-10.72h-6.77v10.72h-5.41V66.26Zm13.32 15.25c3.87 0 6.33-2.02 6.33-5.14v-.09c0-3.3-2.37-5.1-6.37-5.1h-7.87v10.33h7.91Zm25.89.22v-.09c0-8.66 6.68-15.91 16.13-15.91s16.04 7.16 16.04 15.82v.09c0 8.66-6.68 15.91-16.13 15.91s-16.04-7.16-16.04-15.82m26.5 0v-.09c0-5.98-4.35-10.94-10.46-10.94s-10.37 4.88-10.37 10.85v.09c0 5.98 4.35 10.94 10.46 10.94s10.37-4.88 10.37-10.85"/><path class="cls-3" d="M347.28 122.86v-8.14h1.58v8.04c0 3.02 1.6 4.72 4.28 4.72s4.22-1.56 4.22-4.62v-8.14h1.58v8.02c0 4.08-2.34 6.2-5.84 6.2s-5.82-2.12-5.82-6.08m23.39-8.14h6.02c1.72 0 3.1.52 3.98 1.4.68.68 1.08 1.66 1.08 2.76v.04c0 2.32-1.6 3.68-3.8 4.08l4.3 5.72h-1.94l-4.06-5.44h-4v5.44h-1.58v-14Zm5.88 7.14c2.1 0 3.6-1.08 3.6-2.88v-.04c0-1.72-1.32-2.76-3.58-2.76h-4.32v5.68h4.3Zm16.58-7.14h5.96c1.6 0 2.86.46 3.66 1.24.58.6.9 1.34.9 2.24v.04c0 1.82-1.12 2.76-2.22 3.24 1.66.5 3 1.46 3 3.38v.04c0 2.4-2.02 3.82-5.08 3.82h-6.22v-14Zm5.7 6.24c1.9 0 3.22-.86 3.22-2.5v-.04c0-1.38-1.1-2.28-3.1-2.28h-4.26v4.82h4.14Zm.56 6.34c2.12 0 3.44-.94 3.44-2.5v-.04c0-1.52-1.28-2.4-3.72-2.4h-4.42v4.94h4.7Zm21.37-12.68h1.48l6.38 14.1h-1.7l-1.64-3.7h-7.62l-1.66 3.7h-1.62l6.38-14.1Zm3.9 8.98-3.18-7.14-3.2 7.14h6.38Zm14.71-8.88h1.48l8.83 11.22v-11.22h1.54v14h-1.26l-9.05-11.48v11.48h-1.54v-14zm23.94 0h1.58v14h-1.58zm12.76 11.96.98-1.16c1.46 1.32 2.86 1.98 4.8 1.98s3.12-1 3.12-2.38v-.04c0-1.3-.7-2.04-3.64-2.66-3.22-.7-4.7-1.74-4.7-4.04v-.04c0-2.2 1.94-3.82 4.6-3.82 2.04 0 3.5.58 4.92 1.72l-.92 1.22c-1.3-1.06-2.6-1.52-4.04-1.52-1.82 0-2.98 1-2.98 2.26v.04c0 1.32.72 2.06 3.8 2.72 3.12.68 4.56 1.82 4.56 3.96v.04c0 2.4-2 3.96-4.78 3.96-2.22 0-4.04-.74-5.72-2.24m21.72-11.96h1.6l5.1 7.64 5.11-7.64h1.6v14h-1.58v-11.34l-5.1 7.5h-.08l-5.11-7.48v11.32h-1.54v-14zm24.74 7.04v-.04c0-3.86 2.9-7.24 7.16-7.24s7.12 3.34 7.12 7.2v.04c0 3.86-2.9 7.24-7.16 7.24s-7.12-3.34-7.12-7.2m12.64 0v-.04c0-3.18-2.32-5.78-5.52-5.78s-5.48 2.56-5.48 5.74v.04c0 3.18 2.32 5.78 5.52 5.78s5.48-2.56 5.48-5.74"/><path transform="rotate(-45 42.912 42.905)" style="fill:#99ca3c" d="M12.57 12.57h60.68v60.68H12.57z"/><path class="cls-1" d="M17.13 64.73 0 47.6v81.12l17.13-17.13V64.73zm51.55 46.86 17.14 17.13V47.6L68.68 64.73v46.86z"/><path class="cls-3" d="M17.13 111.59 0 128.72h85.82l-17.14-17.13H17.13z"/></g></symbol><symbol fill="none" id="minus" viewBox="0 0 52 52"><rect x=".678" y=".938" width="50.95" height="50.95" rx="25.475" fill="#161616"/><path stroke="#fff" stroke-width="2.685" d="M17.209 26.584h17.888"/></symbol><symbol fill="none" id="plus" viewBox="0 0 52 52"><rect x=".678" y=".938" width="50.95" height="50.95" rx="25.475" fill="#fff"/><path stroke="#444" stroke-width="2.685" d="M26.016 17.047v18.734m-8.807-9.197h17.888"/></symbol><symbol fill="none" id="star" viewBox="0 0 15 14"><path d="M7.294.398a.3.3 0 0 1 .57 0l1.462 4.497a.3.3 0 0 0 .285.208h4.729a.3.3 0 0 1 .176.542l-3.825 2.78a.3.3 0 0 0-.11.335l1.462 4.498a.3.3 0 0 1-.462.335l-3.825-2.78a.3.3 0 0 0-.353 0l-3.826 2.78a.3.3 0 0 1-.461-.335L4.577 8.76a.3.3 0 0 0-.109-.335L.642 5.645a.3.3 0 0 1 .177-.542h4.728a.3.3 0 0 0 .286-.208L7.294.398Z" fill="#133419"/></symbol><symbol fill="none" id="x" viewBox="0 0 18 19"><path d="m10.675 8.178 6.553-7.46h-1.552L9.984 7.195 5.44.72H.199l6.872 9.793-6.872 7.821h1.553l6.007-6.84 4.799 6.84h5.241M2.312 1.865h2.385l10.978 15.378h-2.386" fill="#b1dbe0" fill-opacity=".62"/></symbol></svg>